<svg width="17" height="17" viewBox="0 0 17 17" fill="none" xmlns="http://www.w3.org/2000/svg">
<path d="M6.16991 5.45804L7.79199 3.82888V10.6218C7.79199 10.8097 7.86662 10.9898 7.99946 11.1227C8.1323 11.2555 8.31246 11.3301 8.50033 11.3301C8.68819 11.3301 8.86835 11.2555 9.00119 11.1227C9.13403 10.9898 9.20866 10.8097 9.20866 10.6218V3.82888L10.8307 5.45804C10.8966 5.52443 10.9749 5.57713 11.0613 5.61309C11.1476 5.64905 11.2402 5.66757 11.3337 5.66757C11.4272 5.66757 11.5198 5.64905 11.6061 5.61309C11.6924 5.57713 11.7707 5.52443 11.8366 5.45804C11.903 5.39219 11.9557 5.31385 11.9916 5.22754C12.0276 5.14122 12.0461 5.04864 12.0461 4.95513C12.0461 4.86162 12.0276 4.76904 11.9916 4.68272C11.9557 4.5964 11.903 4.51806 11.8366 4.45221L9.00324 1.61888C8.93588 1.55439 8.85644 1.50384 8.76949 1.47013C8.59704 1.39928 8.40361 1.39928 8.23116 1.47013C8.14421 1.50384 8.06477 1.55439 7.99741 1.61888L5.16408 4.45221C5.09803 4.51825 5.04564 4.59666 5.0099 4.68295C4.97416 4.76924 4.95576 4.86173 4.95576 4.95513C4.95576 5.04853 4.97416 5.14101 5.0099 5.2273C5.04564 5.31359 5.09803 5.392 5.16408 5.45804C5.23012 5.52409 5.30853 5.57648 5.39482 5.61222C5.48111 5.64796 5.57359 5.66636 5.66699 5.66636C5.76039 5.66636 5.85288 5.64796 5.93917 5.61222C6.02546 5.57648 6.10387 5.52409 6.16991 5.45804ZM14.8753 9.91346C14.6875 9.91346 14.5073 9.98809 14.3745 10.1209C14.2416 10.2538 14.167 10.4339 14.167 10.6218V13.4551C14.167 13.643 14.0924 13.8232 13.9595 13.956C13.8267 14.0888 13.6465 14.1635 13.4587 14.1635H3.54199C3.35413 14.1635 3.17396 14.0888 3.04113 13.956C2.90829 13.8232 2.83366 13.643 2.83366 13.4551V10.6218C2.83366 10.4339 2.75903 10.2538 2.62619 10.1209C2.49335 9.98809 2.31319 9.91346 2.12533 9.91346C1.93746 9.91346 1.7573 9.98809 1.62446 10.1209C1.49162 10.2538 1.41699 10.4339 1.41699 10.6218V13.4551C1.41699 14.0187 1.64088 14.5592 2.03939 14.9577C2.43791 15.3562 2.97841 15.5801 3.54199 15.5801H13.4587C14.0222 15.5801 14.5627 15.3562 14.9613 14.9577C15.3598 14.5592 15.5837 14.0187 15.5837 13.4551V10.6218C15.5837 10.4339 15.509 10.2538 15.3762 10.1209C15.2434 9.98809 15.0632 9.91346 14.8753 9.91346Z" fill="#102A6C"/>
</svg>
